<?xml version="1.0" encoding="utf-8"?>
<!-- Generator: Adobe Illustrator 25.0.1, SVG Export Plug-In . SVG Version: 6.00 Build 0)  -->
<svg version="1.1" id="Layer_1" xmlns="http://www.w3.org/2000/svg" xmlns:xlink="http://www.w3.org/1999/xlink" x="0px" y="0px"
	 viewBox="0 0 850.4 850.4" style="enable-background:new 0 0 850.4 850.4;" xml:space="preserve">
<style type="text/css">
	.st0{fill:#FFFFFF;stroke:#000000;stroke-miterlimit:10;}
</style>
<g>
	<path class="st0" d="M341.1,422.7c-0.9-0.6-4.5-3.7-7.3-7.4c-1.5-2-1.1-3,1.7-2.8c6.3,0.5,9.8,3.2,9.8,7.8
		C345.3,423.3,343.6,424.3,341.1,422.7z M354.9,421.6c-5.9,14.3-11.5,29.5-12.1,34.1c-0.6,5.2-2.6,6-6.5-1.3
		c-2.7-4.8-2.1-6.3-0.7-6.9c1.9-0.9,2.6-1.4,6.5-8.3c3.8-6.6,7.8-13.7,10.4-18.6c1.2-2.2,2.2-3.2,2.8-3
		C356,417.8,356,419.2,354.9,421.6z M349.6,400.8c-2.3-1.5-5.1-4-8.1-7.9c-1.3-1.7-0.9-2.4,2.7-2c6,0.6,8.6,2.7,9.4,6.6
		C354.2,400.4,351.9,402.3,349.6,400.8z M400.2,455.3c-4-0.2-5.8-1-10.5-6.5c-3.5-4.2-6.7-8.1-9.9-12.9
		c-8.4,10.3-19.3,16.6-29.1,16.7c-2.9,0-2.9-1.3-0.5-2.1c11.7-3.8,21.6-11.4,26.5-19.2c-9.9-14.9-13-17.8-16.3-20.1
		c-2.2-1.6-2.1-3.4,0.8-2.9c4.2,0.6,7.9,3.5,11.6,10c1,1.7,3.1,4.6,6.2,8.7c4-7.7,6.4-15.3,8.1-23.4c0.7-3.3,0.3-3.9-1.3-3.8
		c-2.2,0.1-6.2,0.9-12.2,2.7c-8.1,2.5-9.6,2.5-12.6,1c-3.4-1.7-2.5-2.9-0.1-3c2.7-0.1,9-1,13.6-2.1c4.5-1,10.3-3.1,13.1-5.2
		c1.7-1.4,3.4-1.3,7,1c5.7,3.7,5.8,4.6,2.5,7.5c-1.9,1.6-3.9,4.8-5.4,9.5c-2.7,8.4-6,15.8-9,20.7c9.9,11.8,20.8,16.9,35.1,19.4
		c2.5,0.4,3,1.8,0.1,2.4C413.5,454.6,404,455.5,400.2,455.3z"/>
	<path class="st0" d="M443.4,456.6c-2.7,4.5-4.2,4.9-5.8,0.4c-1.5-4.4-1.4-5.3,0.6-7.8c1.5-1.8,2-3.1,2.5-5.5
		c1.3-6.6,1.4-8.8,1.4-19.4c0-3.8-0.5-3.9-1.8-3.3c-0.9,0.5-5,2.2-5.8,2.6c-2.7,1.3-4.7,1.5-8.1-0.4c-3.6-2.1-2.6-3.7,1.3-3.3
		c2.4,0.2,12.1-2.8,14.2-5.8c1.3-1.8,3-2.3,6.2-1.3c5.5,1.8,5.5,2.7,2.8,5.4c-3.2,2.8-4.6,8.8-5.3,28.2c3.7-1.8,9.3-4.4,11.2-5.4
		c3-1.4,3.7,0.1,1,2.2C449.7,449.6,445.6,453.4,443.4,456.6z M450.6,399c-1.7-1-5.9-4.2-9.1-7.5c-2.4-2.6-2.1-3.2,1.4-3.1
		c6.7,0.1,10.6,2.3,11.9,5.8C456.3,398.5,454.4,401.3,450.6,399z M511.5,426.8c-2.8-0.6-16.7-0.8-29.8,0.9
		c-10.3,1.4-12.9,1.8-17.7,3.1c-5.5,1.6-6.8,1.6-9,0c-2.7-1.8-2.2-3.1,0.2-3.1c0.6,0,6.9-0.8,15-1.9c1.5-4,3.2-9.4,4.4-13.2
		c-0.9,0.1-1.4,0.2-1.8,0.3c-3.8,0.9-6.5,0.8-8.8-0.2c-1.8-0.9-1.4-2.1,0.7-2.2c1.3,0,5.8-0.7,10.7-1.4c1-4.5,1.3-9.9,1-13.3
		c-4.5,0.3-6.1-0.1-8.3-1.1c-2.7-1.2-2.5-2.3,0.1-2.5c4.4-0.3,14.2-2.3,17.2-3.4c7.6-2.9,10.7-2.8,13.7-1.2c2.8,1.5,2.4,2.8,0.5,3.6
		c-2.5,1.1-6.9,2.3-15.2,3.5c-1.2,0.2-2.3,0.3-3.3,0.5c2.5,2.2,2.4,3.7,1.7,5.2c-0.4,1-1.7,4.6-2.6,7.9c4.5-0.9,8.6-1.7,9.2-2.1
		c1.8-1.2,3.3-1.2,6.2,0.5c4.9,2.8,4.8,4.1,3.6,5.3c-0.6,0.7-3,3.6-3.6,4.9c-1,2.2-1.9,4.1-3,6c4.8-0.7,8.2-1.2,8.9-1.3
		c7.7-1.8,10.4-1.5,13.3,0.4C519.3,424.6,517.7,427.8,511.5,426.8z M497.2,448.7c-1.3,2.7-1.3,4.1,0,5c2.3,1.7,1.7,3.5-1.7,4.2
		c-2.2,0.4-5.7,0.8-22.7,1.8c-0.1,3.1-0.6,3.8-1.8,4.1c-1.2,0.3-2.6-2.1-3.3-9.4c-0.7-6.8-1.9-11.9-3.7-14c-1.6-2.1-0.8-4,5.4-1.8
		c7.5-0.1,18.4-2.6,21.2-3.8c2.6-1.1,3.8-1.2,6.7,0.2c7,3.9,6.7,5.9,4.9,7.3C499.7,444,498.6,445.4,497.2,448.7z M489.1,439.4
		c-0.9,0-2.7,0.1-5.1,0.5c-6.6,1.2-10.1,1.7-12.6,2.1c0.7,3.5,1.1,7.9,1.3,13.9c5.1-0.2,11.4-0.9,15.6-1.9c1.2-0.3,2.5-2.4,4.1-11.2
		C492.9,439.8,492.5,439.4,489.1,439.4z M488.2,410.4c-0.5-0.1-4.9,0.7-9,1.4c-1.9,6.9-3,10.1-4.6,13.5c4.3-0.6,8.6-1.2,12.7-1.7
		c1.2-2.7,1.8-4.7,2.9-10.2C490.6,411.2,489.9,410.6,488.2,410.4z"/>
</g>
</svg>
