<?xml version="1.0" encoding="utf-8"?>
<!-- Generator: Adobe Illustrator 25.0.1, SVG Export Plug-In . SVG Version: 6.00 Build 0)  -->
<svg version="1.1" id="Layer_1" xmlns="http://www.w3.org/2000/svg" xmlns:xlink="http://www.w3.org/1999/xlink" x="0px" y="0px"
	 viewBox="0 0 850.4 850.4" style="enable-background:new 0 0 850.4 850.4;" xml:space="preserve">
<style type="text/css">
	.st0{fill:#FFFFFF;stroke:#000000;stroke-miterlimit:10;}
</style>
<g>
	<path class="st0" d="M310.4,424.7c-3.4,20.6-5.1,25.7-8.3,29.7c-4.6,5.4-6.4,5-7.2,2.2c-1.1-3.9-2.3-7.4-3.4-9.8
		c-1.4-2.9-2.3-3.3-7.3-3.2c-7.5,0.1-18.5,1-34.5,2.7c0.2,4.8-0.7,5.9-2,5.9c-1.1,0-1.9-1.5-2.9-9.9c-0.9-7.6-3-17.6-3.9-20.5
		c-1-2.8-2.1-4.7-3.1-6.1c-1.9-2.6-1.7-3.1,3.2-2.6c3.2,0.3,4.4,0.6,5,1.5c5.4-0.9,10.4-1.8,15.1-2.7c0.1-7.4-0.9-14.3-2.4-18.2
		c-3.1,0.2-7.1,0.2-8.6-0.4c-5.4-2.3-4.4-3.6,0.2-3.7c8.7-0.2,23.3-3.2,34.7-6.6c3.9-1.3,10.7-1.2,12.2-0.2c4.2,2.5,2.2,5-4.6,6.2
		c-4,0.7-9.4,1.5-15.1,2.3c6.6,3.7,7.1,6,6.4,7.4c-1.1,2.3-2.1,6.1-2.7,10c13.5-2,17-2.4,18.9-2.9c3.5-0.9,5.6-0.9,10.1,1.9
		c6.3,3.9,6.2,5.7,4.3,7.5C312.2,417.4,311.2,420.3,310.4,424.7z M297.1,410.4c-3.2-0.2-8.8,0.2-16.4,1.2c-0.4,3.6-0.6,7.1-0.4,9.5
		c0.1,1.9,1.9,3,5.5,2.5c6.3-0.9,8.4,0.8,8.5,2.6c0.1,1.8-4.5,3-7.7,2.8c-10.8-0.7-12-2.9-10.6-16.8c-3.2,0.6-6.7,1.1-10.3,1.7
		c-0.4,9.2-2.7,15.1-7.8,19.6c-3.7,3.2-5.4,3.2-2.3-1.2c2.7-3.7,5.2-11.6,5.5-17.7c-4.5,0.8-9.3,1.6-14.3,2.6
		c0.8,4.7,2.2,17.1,2.7,25.5c15.6-2,27.3-3.2,35.2-4c5.1-0.5,7.5,0.6,8.9,3.7c1.8,4.1,5,4.1,5.8,1.8c2.9-8.1,4.6-18.9,4.7-25.9
		C304.2,411.8,302.7,410.7,297.1,410.4z M276.1,391.5c-5.2,0.8-10.5,1.5-14.7,2c4.8,3,5.1,3.7,4.9,6c-0.2,2.3-0.4,6.4-0.5,11.6
		c3.6-0.6,7.2-1.1,10.5-1.6C277.4,399,277.2,394,276.1,391.5z"/>
	<path class="st0" d="M361.5,435.2c-9.4,5.3-17.9,10.7-19.6,12.4c-1.6,1.6-3.2,2-6.2-0.6c-3.4-2.9-2.8-4.8,0.7-5.1
		c2.4-0.2,7.4-1.8,12.4-3.9l0.4-17.6c-3.2,0.5-5.9,0.5-7.3,0c-2.9-1-3.1-2.3-1.8-2.6c3.2-0.7,6.4-1.5,9.2-2.3
		c0-11.6-0.3-14.2-1.1-15.6c-2.6,0.1-4.9-0.2-7.3-1.1c-3.1-1.3-3.3-2.4-0.6-2.8c2.8-0.5,11.9-2.6,14.9-3.7c2.4-0.9,5.6-1.1,7.7,0
		c2.4,1.2,2,2.7-0.5,3.6c-5.4,2-7.6,2.7-10.7,3.4c3.6,2,4.1,4,3.1,6.6c-0.4,1.2-0.7,3.8-0.9,8.2c2.7-1,5.6-1.5,7-0.8
		c1.8,1,1.5,2.6-1.2,3.9c-2,0.9-4,1.6-6,2.3l-0.4,16.4c7.8-4.1,11.4-5.3,12.2-4.3C365.9,432.1,364.8,433.3,361.5,435.2z
		 M381.1,396.6c0,9.4-0.7,19.4-1.9,26.4c-2.6,15.3-9.6,26.7-23.9,36.4c-1.5,1-2.4-0.3-0.9-1.8c12.5-12.2,19.1-24.8,20.7-37.9
		c1.3-10.9,0.7-32.8-0.7-35.3c-2.6-4.7-1.2-5.7,3.4-3.7c5.5,2.5,5.7,3.6,4.1,6.7C381.2,388.7,381.1,390.9,381.1,396.6z M367.9,421.3
		c-2-6.3-3.2-10.2-5-16.7c-0.5-1.8,0.1-2.2,1-1.3c7.7,7.8,8.4,12,7.4,17C370.6,423.8,368.7,423.8,367.9,421.3z M411.4,445.1
		c-6-1.3-16.2-0.5-24.7,1.7c-4.4,1.1-5.8,0.9-7.6-0.3c-3.2-2.1-2.8-3.2-0.4-3.3c2.9-0.1,8.7-0.9,14.6-2l0.5-20.2
		c-4.3,0.3-5.5,0.3-6.8,0c-3-0.6-3.2-2.2-1.6-2.5c1.5-0.3,5-1.1,8.5-2c0.3-11.4-0.2-17.3-1.3-19.7c-1.8,0.1-3.3,0-4.6-0.3
		c-3.4-0.7-3.6-2.7-1.3-3.2c5-1,11.5-2.9,15.2-4.4c2.7-1.1,5.4-1.1,8.4,0.1c2.1,0.8,2.3,3-0.1,3.8c-3.5,1.2-9.2,2.7-13,3.5
		c2.2,1.4,2.7,2.5,2.3,4.8c-0.4,2.1-0.5,4.2-0.9,14.3c4.6-1.7,7.7-1.6,9.5-0.8c2,0.8,1.9,2.8-0.3,3.6c-2.4,0.8-5.1,1.5-9.4,2.2
		l-0.6,20.1c2.8-0.5,5.4-1,7.3-1.4c6.1-1.1,8.4-0.7,12.3,1.6C420.7,442.7,419.4,446.8,411.4,445.1z"/>
	<path class="st0" d="M510.1,405.9c-10.3-0.2-15-0.1-24.7,1.1c0.6,12.5,1.1,28.7,1.1,38.9c0,5.1-2.1,11.1-4.5,13.8
		c-2.1,2.3-3.2,1.9-4.6-0.2c-2-2.9-6-6.5-9.8-9c-1.6-1-1.5-2.3,1.4-1.8c8.6,1.4,9.8,0.7,10.6-5.9c1-8.4,1.4-14.7,1.4-33.6
		c-12.8,21.1-26.8,32.2-41.2,37c-1.8,0.6-2.3-1-0.6-1.9c16.3-9.3,25.9-19.9,35.6-36c-12.4,1.8-17.8,4.1-22.1,8.9
		c-0.8,0.9-2.6,1.2-4.4-1.7c-1.2-2-1.2-4.2,0-4.8c5-2.6,6.3-10.9,4-15.7c-1.5-3.2,0.5-4,4.2-1.4c3.4,2.3,3.4,2.7,1.3,14.2
		c6.9-1.4,19.7-3.7,23.2-4.3c-0.1-9.3-1.7-15-3.7-17.3c-9.1,1.7-13.4,2-15,1.3c-3.8-1.6-3.8-2.8-0.2-3.3c5.2-0.7,22.5-5.4,25-6.5
		c2.4-1.1,6.5-1.2,8.3-0.3c3.2,1.6,2.7,3.4-0.8,4.7c-3.3,1.1-8.4,2.4-14.2,3.5c5.9,2.3,6.6,3.2,5.7,6.6c-0.5,1.8-0.8,7.2-0.8,10.7
		c5.8-1,10.4-1.8,12.1-2.2c7.4-1.7,11.4-1.6,14-0.4C517.3,403.3,515.7,406,510.1,405.9z"/>
	<path class="st0" d="M548.4,450.9c-2.7,4.5-4.2,4.9-5.8,0.4c-1.5-4.4-1.4-5.3,0.6-7.8c1.5-1.8,2-3.1,2.5-5.5
		c1.3-6.6,1.4-8.8,1.4-19.4c0-3.8-0.5-3.9-1.8-3.3c-0.9,0.5-5,2.2-5.8,2.6c-2.7,1.3-4.7,1.5-8.1-0.4c-3.6-2.1-2.6-3.7,1.3-3.3
		c2.4,0.2,12.1-2.8,14.2-5.8c1.3-1.8,3-2.3,6.2-1.3c5.5,1.8,5.5,2.7,2.8,5.4c-3.2,2.8-4.6,8.8-5.3,28.2c3.7-1.8,9.3-4.4,11.2-5.4
		c3-1.4,3.7,0.1,1,2.2C554.7,443.9,550.6,447.7,548.4,450.9z M555.6,393.3c-1.7-1-5.9-4.2-9.1-7.5c-2.4-2.6-2.1-3.2,1.4-3.1
		c6.7,0.1,10.6,2.3,11.9,5.8C561.3,392.8,559.4,395.6,555.6,393.3z M616.5,421.1c-2.8-0.6-16.7-0.8-29.8,0.9
		c-10.3,1.4-12.9,1.8-17.7,3.1c-5.5,1.6-6.8,1.6-9,0c-2.7-1.8-2.2-3.1,0.2-3.1c0.6,0,6.9-0.8,15-1.9c1.5-4,3.2-9.4,4.4-13.2
		c-0.9,0.1-1.4,0.2-1.8,0.3c-3.8,0.9-6.5,0.8-8.8-0.2c-1.8-0.9-1.4-2.1,0.7-2.2c1.3,0,5.8-0.7,10.7-1.4c1-4.5,1.3-9.9,1-13.3
		c-4.5,0.3-6.1-0.1-8.3-1.1c-2.7-1.2-2.5-2.3,0.1-2.5c4.4-0.3,14.2-2.3,17.2-3.4c7.6-2.9,10.7-2.8,13.7-1.2c2.8,1.5,2.4,2.8,0.5,3.6
		c-2.5,1.1-6.9,2.3-15.2,3.5c-1.2,0.2-2.3,0.3-3.3,0.5c2.5,2.2,2.4,3.7,1.7,5.2c-0.4,1-1.7,4.6-2.6,7.9c4.5-0.9,8.6-1.7,9.2-2.1
		c1.8-1.2,3.3-1.2,6.2,0.5c4.9,2.8,4.8,4.1,3.6,5.3c-0.6,0.7-3,3.6-3.6,4.9c-1,2.2-1.9,4.1-3,6c4.8-0.7,8.2-1.2,8.9-1.3
		c7.7-1.8,10.4-1.5,13.3,0.4C624.3,418.9,622.7,422.1,616.5,421.1z M602.2,443c-1.3,2.7-1.3,4.1,0,5c2.3,1.7,1.7,3.5-1.7,4.2
		c-2.2,0.4-5.7,0.8-22.7,1.8c-0.1,3.1-0.6,3.8-1.8,4.1c-1.2,0.3-2.6-2.1-3.3-9.4c-0.7-6.8-1.9-11.9-3.7-14c-1.6-2.1-0.8-4,5.4-1.8
		c7.5-0.1,18.4-2.6,21.2-3.8c2.6-1.1,3.8-1.2,6.7,0.2c7,3.9,6.7,5.9,4.9,7.3C604.7,438.3,603.6,439.7,602.2,443z M594.1,433.7
		c-0.9,0-2.7,0.1-5.1,0.5c-6.6,1.2-10.1,1.7-12.6,2.1c0.7,3.5,1.1,7.9,1.3,13.9c5.1-0.2,11.4-0.9,15.6-1.9c1.2-0.3,2.5-2.4,4.1-11.2
		C597.9,434.1,597.5,433.7,594.1,433.7z M593.2,404.7c-0.5-0.1-4.9,0.7-9,1.4c-1.9,6.9-3,10.1-4.6,13.5c4.3-0.6,8.6-1.2,12.7-1.7
		c1.2-2.7,1.8-4.7,2.9-10.2C595.6,405.5,594.9,404.9,593.2,404.7z"/>
</g>
</svg>
