<?xml version="1.0" encoding="utf-8"?>
<!-- Generator: Adobe Illustrator 25.0.1, SVG Export Plug-In . SVG Version: 6.00 Build 0)  -->
<svg version="1.1" id="Layer_1" xmlns="http://www.w3.org/2000/svg" xmlns:xlink="http://www.w3.org/1999/xlink" x="0px" y="0px"
	 viewBox="0 0 850.4 850.4" style="enable-background:new 0 0 850.4 850.4;" xml:space="preserve">
<style type="text/css">
	.st0{fill:#FFFFFF;stroke:#000000;stroke-miterlimit:10;}
</style>
<g>
	<path class="st0" d="M415,428.7c-13.2-1.3-18.3-1.4-34.1-0.6c-2.7,0.2-6,0.4-6.7,0.6c14.3,17,21.7,21.7,40,26.4
		c2.8,0.7,2.8,2.1-0.5,2.5c-17,2-18.8,1.8-22.9-2.8c-9.4-11-11.7-14.1-17.2-23.1c-3.6,13.2-13.7,22.1-27.9,24.6
		c-3.5,0.4-3.6-1.2-0.1-2.5c11.3-3.9,20.9-12.9,23.9-24.7c-7.9,0.8-17.6,1.8-21.6,2.7c-7.3,1.7-8.5,1.5-11.2-0.2
		c-3.8-2.2-3.3-3.5,1-3.4c2.2,0.1,11.3-0.5,20.9-1.1c-0.9-7.4-3-13-4.3-14.6c-2.1-2.6-1-3.8,5-2c3.4-0.3,8-0.8,12.5-1.4
		c0.1-3.6-0.2-6.4-0.7-7.2c-1.4-1.6-0.3-3.2,3.3-1.7c3.9,1.5,4.2,3.4,3.8,4.2c-0.4,0.9-0.6,2.1-0.8,3.9c4.9-0.7,8.8-1.3,9.7-1.6
		c4.3-1.5,4.7-1.6,8.3,0.4c5.3,2.8,5,4.1,2.3,6.3c-1.6,1.3-2.9,3.4-5.9,10.7c0.8-0.1,2-0.2,2.4-0.2c16-3,17.2-2.8,21.8-0.2
		C419.7,425.7,419.3,429.2,415,428.7z M404.2,394.1c-2.5-0.3-10.1-0.7-15.8-0.6c-1.4,3.3-3.4,7-4.7,8.8c-1.7,2-3,1.4-1.9-1.5
		c0.7-1.8,1.6-4.5,2.2-7.1c-3.6,0.2-10.6,1-16.8,1.8c0,1.7,0,3.8,0.1,5.9c0,1.7-0.7,3-1.6,3s-1.7-1.7-1.8-2.7
		c-0.2-2.2-0.4-4.1-0.6-5.7c-3.7,0.3-6.4,0.7-7.4,1c-5.1,1.5-7.2,1.6-9.8-0.3c-2.9-2-2.7-3,0.5-3c2.7,0,8.3-0.4,16.2-0.9
		c-0.8-4.8-1.8-7.5-3.8-10.2c-1.1-1.8-0.5-2.9,2.9-2.2c4.3,0.8,6,2.5,5.5,4.9c-0.2,0.7-0.3,3.1-0.3,7.1c0.7-0.1,1.4-0.1,2.2-0.2
		c5.3-0.6,10.6-1.2,15.3-1.8c0.7-4.2,0.9-9.5-0.2-11.3c-1.3-2.7-0.2-3.9,3.6-2.7c1.5,0.4,3.1,1.3,4.1,2c1.8,1.3,1.6,2.3,0.7,3.8
		c-0.9,1.4-1.8,3.8-3,7.4c2.6-0.3,4.7-0.7,6.2-1.1c5.7-1.4,7.9-1.3,10.9,0.5C411.3,391.6,410.3,394.9,404.2,394.1z M361,413.2
		c0.7,3.9,1.1,7.2,1.6,13.6c2.5-0.2,5.1-0.4,7.5-0.6c0.9-4.2,1.4-9.6,1.6-14.4C368.5,412.4,364.5,412.9,361,413.2z M386.9,410.1
		c-2.2-0.2-5.7,0.1-9.7,0.7c-0.4,4-1.4,9.9-2.4,15c4.2-0.4,8.2-0.7,11.3-1.1c1.6-4.7,2.5-8.7,2.8-11.6
		C389.1,410.5,388.9,410.2,386.9,410.1z"/>
	<path class="st0" d="M448.4,450.9c-2.7,4.5-4.2,4.9-5.8,0.4c-1.5-4.4-1.4-5.3,0.6-7.8c1.5-1.8,2-3.1,2.5-5.5
		c1.3-6.6,1.4-8.8,1.4-19.4c0-3.8-0.5-3.9-1.8-3.3c-0.9,0.5-5,2.2-5.8,2.6c-2.7,1.3-4.7,1.5-8.1-0.4c-3.6-2.1-2.6-3.7,1.3-3.3
		c2.4,0.2,12.1-2.8,14.2-5.8c1.3-1.8,3-2.3,6.2-1.3c5.5,1.8,5.5,2.7,2.8,5.4c-3.2,2.8-4.6,8.8-5.3,28.2c3.7-1.8,9.3-4.4,11.2-5.4
		c3-1.4,3.7,0.1,1,2.2C454.7,443.9,450.6,447.7,448.4,450.9z M455.6,393.3c-1.7-1-5.9-4.2-9.1-7.5c-2.4-2.6-2.1-3.2,1.4-3.1
		c6.7,0.1,10.6,2.3,11.9,5.8C461.3,392.8,459.4,395.6,455.6,393.3z M516.5,421.1c-2.8-0.6-16.7-0.8-29.8,0.9
		c-10.3,1.4-12.9,1.8-17.7,3.1c-5.5,1.6-6.8,1.6-9,0c-2.7-1.8-2.2-3.1,0.2-3.1c0.6,0,6.9-0.8,15-1.9c1.5-4,3.2-9.4,4.4-13.2
		c-0.9,0.1-1.4,0.2-1.8,0.3c-3.8,0.9-6.5,0.8-8.8-0.2c-1.8-0.9-1.4-2.1,0.7-2.2c1.3,0,5.8-0.7,10.7-1.4c1-4.5,1.3-9.9,1-13.3
		c-4.5,0.3-6.1-0.1-8.3-1.1c-2.7-1.2-2.5-2.3,0.1-2.5c4.4-0.3,14.2-2.3,17.2-3.4c7.6-2.9,10.7-2.8,13.7-1.2c2.8,1.5,2.4,2.8,0.5,3.6
		c-2.5,1.1-6.9,2.3-15.2,3.5c-1.2,0.2-2.3,0.3-3.3,0.5c2.5,2.2,2.4,3.7,1.7,5.2c-0.4,1-1.7,4.6-2.6,7.9c4.5-0.9,8.6-1.7,9.2-2.1
		c1.8-1.2,3.3-1.2,6.2,0.5c4.9,2.8,4.8,4.1,3.6,5.3c-0.6,0.7-3,3.6-3.6,4.9c-1,2.2-1.9,4.1-3,6c4.8-0.7,8.2-1.2,8.9-1.3
		c7.7-1.8,10.4-1.5,13.3,0.4C524.3,418.9,522.7,422.1,516.5,421.1z M502.2,443c-1.3,2.7-1.3,4.1,0,5c2.3,1.7,1.7,3.5-1.7,4.2
		c-2.2,0.4-5.7,0.8-22.7,1.8c-0.1,3.1-0.6,3.8-1.8,4.1c-1.2,0.3-2.6-2.1-3.3-9.4c-0.7-6.8-1.9-11.9-3.7-14c-1.6-2.1-0.8-4,5.4-1.8
		c7.5-0.1,18.4-2.6,21.2-3.8c2.6-1.1,3.8-1.2,6.7,0.2c7,3.9,6.7,5.9,4.9,7.3C504.7,438.3,503.6,439.7,502.2,443z M494.1,433.7
		c-0.9,0-2.7,0.1-5.1,0.5c-6.6,1.2-10.1,1.7-12.6,2.1c0.7,3.5,1.1,7.9,1.3,13.9c5.1-0.2,11.4-0.9,15.6-1.9c1.2-0.3,2.5-2.4,4.1-11.2
		C497.9,434.1,497.5,433.7,494.1,433.7z M493.2,404.7c-0.5-0.1-4.9,0.7-9,1.4c-1.9,6.9-3,10.1-4.6,13.5c4.3-0.6,8.6-1.2,12.7-1.7
		c1.2-2.7,1.8-4.7,2.9-10.2C495.6,405.5,494.9,404.9,493.2,404.7z"/>
</g>
</svg>
